<svg width="120" height="120" viewBox="0 0 120 120" fill="none" xmlns="http://www.w3.org/2000/svg">
<path d="M13.1184 39.7778C13.0512 39.53 13.1825 39.2716 13.4223 39.1799L62.943 20.2335C63.2505 20.1158 63.5859 20.3224 63.6191 20.65L67.2922 56.8847C67.3144 57.104 67.1904 57.312 66.987 57.3967L34.2294 71.039C34.1429 71.075 34.0682 71.1346 34.014 71.211L25.6772 82.9484C25.4326 83.2928 24.8976 83.1975 24.787 82.7898L13.1184 39.7778Z" fill="#7D26FF"/>
<path d="M85.9205 45.087C69.8939 38.6954 52.6345 44.3495 47.2101 57.6245C43.7582 66.4744 46.2238 76.3077 53.1276 83.6826L49.4291 97.9654C49.3305 98.3588 49.725 98.7029 50.0949 98.5554L65.4557 92.5326C65.9489 92.7784 66.442 93.0242 66.6886 93.0242C82.7151 99.4158 99.9745 93.7617 105.399 80.4868C110.577 67.4577 101.947 51.4787 85.9205 45.087ZM60.5245 70.8994C58.3054 70.8994 56.3329 69.1785 56.3329 66.7202C56.3329 64.5077 58.0589 62.5411 60.5245 62.5411C62.7435 62.5411 64.716 64.2619 64.716 66.7202C64.4695 68.9327 62.7435 70.8994 60.5245 70.8994ZM76.3045 73.6035C74.0854 73.6035 72.1129 71.8827 72.1129 69.4244C72.1129 67.2119 73.8389 65.2452 76.3045 65.2452C78.7701 65.2452 80.4961 66.9661 80.4961 69.4244C80.4961 71.6369 78.5236 73.6035 76.3045 73.6035ZM91.5914 76.7993C89.3723 76.7993 87.3998 75.0785 87.3998 72.6202C87.3998 70.4077 89.1258 68.441 91.5914 68.441C93.8105 68.441 95.783 70.1619 95.783 72.6202C95.783 74.8327 94.057 76.7993 91.5914 76.7993Z" fill="#EF0E0E"/>
</svg>
